<?xml version="1.0" encoding="UTF-8"?>
<svg version="1.1" xmlns="http://www.w3.org/2000/svg" width="648" height="648">
<path d="M0 0 C4.15210786 1.70788673 7.28754487 4.64425959 10.625 7.5625 C11.55650879 8.3683252 11.55650879 8.3683252 12.50683594 9.19042969 C16.12832173 12.33328855 19.70261217 15.5235663 23.25 18.75 C27.99205576 23.05881146 32.95128883 27.05770851 38 31 C37.26459235 34.33384804 36.30130525 36.42253812 34 39 C33.34 39 32.68 39 32 39 C31.731875 39.5775 31.46375 40.155 31.1875 40.75 C30 43 30 43 28.4765625 44.83984375 C25.66562731 48.95213783 25.53599619 54.37837849 26.390625 59.20703125 C26.85274517 60.82775269 27.41578466 62.41918202 28 64 C28.66 64 29.32 64 30 64 C30 64.66 30 65.32 30 66 C36.18951021 68.02106456 41.61422622 69.1420866 47.875 66.625 C51.06811311 65.35313012 51.06811311 65.35313012 52 63 C52.66 63 53.32 63 54 63 C54.28875 62.401875 54.5775 61.80375 54.875 61.1875 C56 59 56 59 58 56 C58.66 56 59.32 56 60 56 C60.33 55.01 60.66 54.02 61 53 C64.43752007 54.5277867 67.18953688 56.50181056 70 59 C70 59.66 70 60.32 70 61 C70.59441895 61.27602051 71.18883789 61.55204102 71.80126953 61.83642578 C73.88274724 62.93794952 75.42210824 64.06503249 77.1796875 65.6171875 C77.77177002 66.13571289 78.36385254 66.65423828 78.97387695 67.18847656 C79.91493286 68.02330566 79.91493286 68.02330566 80.875 68.875 C82.21967778 70.05511413 83.56473884 71.23479167 84.91015625 72.4140625 C85.59094238 73.01250977 86.27172852 73.61095703 86.97314453 74.22753906 C90.06273391 76.92934813 93.18810976 79.58861036 96.3125 82.25 C100.34679507 85.69276277 104.32901743 89.17768514 108.25 92.75 C112.20288022 96.34117877 116.31016387 99.66869384 120.50390625 102.97265625 C123.93515778 105.75954129 127.17306472 108.73995281 130.4375 111.71875 C133.04525525 114.04028821 135.72041144 116.24530355 138.4375 118.4375 C143.27291499 122.34407821 147.84153832 126.48210724 152.40625 130.69921875 C155.34431833 133.30542695 158.40559128 135.61627936 161.63671875 137.84375 C162.31154297 138.41609375 162.31154297 138.41609375 163 139 C163 139.66 163 140.32 163 141 C163.598125 141.28875 164.19625 141.5775 164.8125 141.875 C167 143 167 143 170 145 C170 145.66 170 146.32 170 147 C170.58571777 147.27021973 171.17143555 147.54043945 171.77490234 147.81884766 C175.49021245 149.79105199 178.46406741 152.6258364 181.625 155.375 C182.305625 155.9525 182.98625 156.53 183.6875 157.125 C184.33976562 157.68960938 184.99203125 158.25421875 185.6640625 158.8359375 C186.25654785 159.34688965 186.8490332 159.8578418 187.45947266 160.38427734 C189.12591049 162.13205636 190.03340533 163.79907408 191 166 C189.95199219 167.14275391 189.95199219 167.14275391 188.8828125 168.30859375 C181.31625127 176.46628907 181.31625127 176.46628907 179 187 C179.5485715 191.03748622 180.72582118 193.82295589 183.7421875 196.609375 C188.12614274 199.64573311 191.59810885 200.80028017 197 200 C200.18362436 198.7000156 200.18362436 198.7000156 203 197 C203.7425 196.690625 204.485 196.38125 205.25 196.0625 C207.51637889 194.68648424 207.87130439 193.39017895 209 191 C210.59643578 188.93223556 212.29138559 186.97839563 214 185 C217.44779086 186.50006391 219.82360533 188.50409262 222.5625 191.0625 C227.0166579 195.14984489 231.61654825 198.98917731 236.31640625 202.7890625 C239.67411915 205.55538783 242.90768784 208.44357625 246.125 211.37109375 C248.10921189 213.16448193 248.10921189 213.16448193 251 215 C250.45646186 219.2252399 247.88964099 222.03720779 245.3125 225.25 C244.39905435 226.40570874 243.4862922 227.56195803 242.57421875 228.71875 C242.13126465 229.27820313 241.68831055 229.83765625 241.23193359 230.4140625 C239.1681432 233.07089612 237.25217697 235.83424467 235.3515625 238.609375 C233.58308328 240.42896633 232.53146808 240.83592337 230 241 C227.9140625 239.99609375 227.9140625 239.99609375 225.625 238.4375 C208.95863541 227.95734061 186.98857883 221.54084081 167.19140625 222.109375 C164 222 164 222 161.6875 219.5625 C161.130625 218.716875 160.57375 217.87125 160 217 C159.34 216.67 158.68 216.34 158 216 C158 215.34 158 214.68 158 214 C157.21302734 213.67708984 157.21302734 213.67708984 156.41015625 213.34765625 C153.05467105 211.4714125 150.30900046 208.96521826 147.4375 206.4375 C146.17931562 205.34268008 144.92019144 204.2489393 143.66015625 203.15625 C142.72840576 202.34800781 142.72840576 202.34800781 141.77783203 201.5234375 C139.35081537 199.44370886 136.8664334 197.43935041 134.375 195.4375 C129.92151093 191.82638643 125.69674287 188.00672014 121.49975586 184.10546875 C115.65846799 178.70559043 109.62515155 173.4167677 103 169 C103 168.34 103 167.68 103 167 C102.13375 166.5978125 102.13375 166.5978125 101.25 166.1875 C98.94449957 164.97070811 96.97943808 163.69666121 95 162 C95 161.34 95 160.68 95 160 C94.47664063 159.78472656 93.95328125 159.56945312 93.4140625 159.34765625 C90.04364426 157.46611209 87.26712499 154.96620021 84.375 152.4375 C83.44675415 151.63493774 83.44675415 151.63493774 82.49975586 150.81616211 C78.80832771 147.6139306 75.17252682 144.35644152 71.5625 141.0625 C68.77274752 138.51713906 65.98804712 136.20000142 62.875 134.0625 C61.92625 133.381875 60.9775 132.70125 60 132 C60 131.34 60 130.68 60 130 C59.40904541 129.72599365 58.81809082 129.4519873 58.20922852 129.16967773 C56.08082274 128.04279166 54.46717585 126.85651242 52.65234375 125.28515625 C51.74452148 124.50301758 51.74452148 124.50301758 50.81835938 123.70507812 C50.19767578 123.16302734 49.57699219 122.62097656 48.9375 122.0625 C48.31294922 121.52431641 47.68839844 120.98613281 47.04492188 120.43164062 C42.3225232 116.34427102 42.3225232 116.34427102 40.48657227 114.38452148 C38.93551976 112.7478623 38.93551976 112.7478623 36 112 C34.65397279 110.3435682 33.32239635 108.67535771 32 107 C30.30953425 105.51718202 28.57755645 104.08069752 26.8125 102.6875 C22.33250028 99.10229915 18.0176947 95.39587365 13.77734375 91.53125 C12.06737572 89.93160961 12.06737572 89.93160961 10 89 C10 88.34 10 87.68 10 87 C9.41605469 86.72285156 8.83210937 86.44570312 8.23046875 86.16015625 C6.11011914 85.05727738 4.26528227 83.80895086 2.3125 82.4375 C-2.89583757 79.20274691 -7.36378229 78.36248131 -13.40625 79.421875 C-21.72129025 82.00059002 -26.67724577 88.51822695 -32 95 C-32.79664063 95.96164063 -33.59328125 96.92328125 -34.4140625 97.9140625 C-35.90280617 99.73022746 -37.38361139 101.55293578 -38.85546875 103.3828125 C-41.62243502 106.75962015 -44.5285215 109.9965722 -47.46875 113.22265625 C-49.06839039 114.93262428 -49.06839039 114.93262428 -50 117 C-50.66 117 -51.32 117 -52 117 C-52.40883423 117.88534424 -52.40883423 117.88534424 -52.82592773 118.78857422 C-53.9700715 120.94362812 -55.17942386 122.5558293 -56.78515625 124.3828125 C-57.31560547 124.99253906 -57.84605469 125.60226562 -58.39257812 126.23046875 C-58.94365234 126.85566406 -59.49472656 127.48085938 -60.0625 128.125 C-61.1593674 129.37601485 -62.25450394 130.62855005 -63.34765625 131.8828125 C-64.07480835 132.70869873 -64.07480835 132.70869873 -64.81665039 133.55126953 C-66.09633185 135.00977737 -66.09633185 135.00977737 -67 137 C-67.66 137 -68.32 137 -69 137 C-69.22429687 137.54398438 -69.44859375 138.08796875 -69.6796875 138.6484375 C-71.40381788 141.71922593 -73.71203454 144.09460736 -76.125 146.625 C-80.32989231 151.11543511 -84.24801573 155.72811785 -88.04296875 160.57421875 C-90.0919199 163.11393664 -92.2390183 165.5263845 -94.4375 167.9375 C-99.78131319 173.79995017 -105.06340022 179.82693716 -109.6328125 186.3203125 C-110.08398438 186.87460937 -110.53515625 187.42890625 -111 188 C-111.66 188 -112.32 188 -113 188 C-113.21785156 188.52851563 -113.43570313 189.05703125 -113.66015625 189.6015625 C-115.49805634 192.89156441 -117.95304297 195.56699304 -120.4375 198.375 C-125.35586488 203.99920656 -130.03085081 209.75992766 -134.52124023 215.73193359 C-135.6365806 217.18956879 -136.81291398 218.60017456 -138 220 C-138.66 220 -139.32 220 -140 220 C-140.28875 220.598125 -140.5775 221.19625 -140.875 221.8125 C-142 224 -142 224 -144 227 C-144.66 227 -145.32 227 -146 227 C-146.226875 227.53882813 -146.45375 228.07765625 -146.6875 228.6328125 C-148.72049283 232.29946028 -151.5829351 235.29193606 -154.3671875 238.40234375 C-158.49281202 243.17488572 -160.27308822 247.64954295 -160.375 253.9375 C-160.40335938 254.73027344 -160.43171875 255.52304687 -160.4609375 256.33984375 C-159.18869905 263.68216906 -154.28474157 267.98063971 -148.8125 272.5 C-148.14919678 273.06243408 -147.48589355 273.62486816 -146.80249023 274.2043457 C-142.46147951 277.86263143 -138.03322314 281.39019679 -133.44140625 284.73046875 C-132.96574219 285.14941406 -132.49007812 285.56835938 -132 286 C-132 286.66 -132 287.32 -132 288 C-131.4225 288.268125 -130.845 288.53625 -130.25 288.8125 C-127.94449957 290.02929189 -125.97943808 291.30333879 -124 293 C-124 293.66 -124 294.32 -124 295 C-123.21496094 295.32291016 -123.21496094 295.32291016 -122.4140625 295.65234375 C-119.0436611 297.53387851 -116.26704302 300.03372389 -113.375 302.5625 C-112.75399414 303.0997168 -112.13298828 303.63693359 -111.49316406 304.19042969 C-107.87167827 307.33328855 -104.29738783 310.5235663 -100.75 313.75 C-96.79711978 317.34117877 -92.68983613 320.66869384 -88.49609375 323.97265625 C-85.06771061 326.75721157 -81.83246111 329.73512168 -78.5703125 332.7109375 C-75.03845386 335.85633136 -71.36507618 338.81279709 -67.6875 341.78515625 C-64.29330773 344.58240482 -61.0276355 347.50645879 -57.77734375 350.46875 C-56.06737572 352.06839039 -56.06737572 352.06839039 -54 353 C-54 353.66 -54 354.32 -54 355 C-53.40558105 355.27602051 -52.81116211 355.55204102 -52.19873047 355.83642578 C-50.11725276 356.93794952 -48.57789176 358.06503249 -46.8203125 359.6171875 C-46.22758545 360.13635742 -45.6348584 360.65552734 -45.02416992 361.19042969 C-44.39744385 361.74633789 -43.77071777 362.30224609 -43.125 362.875 C-41.79065028 364.04459686 -40.45600741 365.21385934 -39.12109375 366.3828125 C-38.44159668 366.9799707 -37.76209961 367.57712891 -37.06201172 368.19238281 C-33.78661183 371.06369003 -30.48977293 373.90968058 -27.1875 376.75 C-26.29925537 377.51932861 -26.29925537 377.51932861 -25.39306641 378.30419922 C-22.38790547 380.92822869 -22.38790547 380.92822869 -19 383 C-19 383.66 -19 384.32 -19 385 C-18.47664062 385.21527344 -17.95328125 385.43054688 -17.4140625 385.65234375 C-14.04360333 387.53391076 -11.26728859 390.03394988 -8.375 392.5625 C-7.75471924 393.0982666 -7.13443848 393.6340332 -6.49536133 394.18603516 C-2.8368742 397.35725963 0.75191463 400.59389543 4.3125 403.875 C11.50419633 410.33931432 18.0257806 415.45141793 28 416 C34.50666115 415.21471331 38.57302809 411.5781368 43 407 C43.33 406.34 43.66 405.68 44 405 C44.66 405 45.32 405 46 405 C46.33 404.01 46.66 403.02 47 402 C50 403 50 403 51.2890625 405.30078125 C51.72992188 406.29464844 52.17078125 407.28851562 52.625 408.3125 C57.02246616 417.51318356 63.37418389 425.30550387 70 433 C66.37604168 441.111658 59.22123036 447.86840008 53.3125 454.4375 C52.44238281 455.40558594 51.57226562 456.37367188 50.67578125 457.37109375 C42.13195108 465.76525098 32.66101011 468 21 468 C9.16216136 466.73095197 -0.32666571 458.69157652 -8.4296875 450.5625 C-11.31072028 447.69022415 -14.33460173 445.06444264 -17.4375 442.4375 C-18.68237989 441.37770779 -19.92716894 440.31780886 -21.171875 439.2578125 C-21.80544922 438.71930664 -22.43902344 438.18080078 -23.09179688 437.62597656 C-24.94652625 436.04556489 -26.79482554 434.45801466 -28.640625 432.8671875 C-33.93853098 428.30300521 -39.24828889 423.77118057 -44.6875 419.375 C-49.37163444 415.57557031 -53.80932528 411.55599792 -58.24609375 407.47265625 C-61.83207284 404.25290481 -65.56701492 401.24094824 -69.31640625 398.21484375 C-72.80550916 395.33519113 -76.12996921 392.29306124 -79.47265625 389.24609375 C-82.06962393 386.93812402 -84.73404013 384.74444137 -87.4375 382.5625 C-91.26455727 379.46851286 -94.94280873 376.2716945 -98.5625 372.9375 C-102.74872355 369.08427151 -107.06661066 365.50524904 -111.5390625 361.9921875 C-114.95922214 359.22348684 -118.17968147 356.25380155 -121.4296875 353.2890625 C-124.97319389 350.13329541 -128.65979142 347.16802293 -132.34765625 344.18359375 C-135.54737832 341.54936011 -138.61999179 338.79247631 -141.69921875 336.01953125 C-144.18442624 333.83811823 -146.73725034 331.76169966 -149.3125 329.6875 C-153.88170118 325.98498133 -158.20966717 322.09572131 -162.51220703 318.09326172 C-166.65835747 314.25871054 -170.98182458 310.68445632 -175.3828125 307.14453125 C-178.75962015 304.37756498 -181.9965722 301.4714785 -185.22265625 298.53125 C-186.93262428 296.93160961 -186.93262428 296.93160961 -189 296 C-189 295.34 -189 294.68 -189 294 C-189.79083984 293.67708984 -189.79083984 293.67708984 -190.59765625 293.34765625 C-200.78494088 287.63283804 -209.21793812 277.9081403 -212.375 266.6875 C-214.36245451 255.31375042 -211.40551472 245.51088631 -205 236 C-202.53702986 232.84103376 -199.8405905 229.97014981 -197.0390625 227.109375 C-194.95965381 225.16939537 -194.95965381 225.16939537 -194 223 C-193.34 223 -192.68 223 -192 223 C-191.71125 222.401875 -191.4225 221.80375 -191.125 221.1875 C-190 219 -190 219 -188 216 C-187.34 216 -186.68 216 -186 216 C-185.78472656 215.47664062 -185.56945312 214.95328125 -185.34765625 214.4140625 C-183.46612461 211.0436667 -180.96630139 208.26701571 -178.4375 205.375 C-177.63058716 204.44240356 -177.63058716 204.44240356 -176.80737305 203.4909668 C-172.97723281 199.07813995 -169.06615426 194.7424642 -165.13671875 190.41796875 C-162.89030269 187.87586356 -160.75378947 185.26620605 -158.625 182.625 C-154.87006351 177.97414884 -150.90445327 173.5886324 -146.82495117 169.22607422 C-144.31662556 166.51942837 -142.0197596 163.79660991 -139.9375 160.75 C-138.9784375 159.38875 -138.9784375 159.38875 -138 158 C-137.34 158 -136.68 158 -136 158 C-135.71125 157.401875 -135.4225 156.80375 -135.125 156.1875 C-134 154 -134 154 -132 151 C-131.34 151 -130.68 151 -130 151 C-129.72325439 150.40485596 -129.44650879 149.80971191 -129.16137695 149.1965332 C-128.06880243 147.13012728 -126.95680005 145.60083247 -125.41796875 143.85546875 C-124.90443848 143.26846191 -124.3909082 142.68145508 -123.86181641 142.07666016 C-123.30929199 141.4532373 -122.75676758 140.82981445 -122.1875 140.1875 C-121.01168537 138.84508132 -119.83590512 137.50263253 -118.66015625 136.16015625 C-118.05574707 135.47324707 -117.45133789 134.78633789 -116.82861328 134.07861328 C-113.91742334 130.7694182 -111.01815438 127.44996846 -108.125 124.125 C-107.58214355 123.50254395 -107.03928711 122.88008789 -106.47998047 122.23876953 C-102.89384355 118.10261839 -99.49150577 113.87060161 -96.26953125 109.44140625 C-95.85058594 108.96574219 -95.43164062 108.49007812 -95 108 C-94.34 108 -93.68 108 -93 108 C-92.72397949 107.40558105 -92.44795898 106.81116211 -92.16357422 106.19873047 C-91.06205048 104.11725276 -89.93496751 102.57789176 -88.3828125 100.8203125 C-87.86364258 100.22758545 -87.34447266 99.6348584 -86.80957031 99.02416992 C-86.25366211 98.39744385 -85.69775391 97.77071777 -85.125 97.125 C-83.95540314 95.79065028 -82.78614066 94.45600741 -81.6171875 93.12109375 C-81.0200293 92.44159668 -80.42287109 91.76209961 -79.80761719 91.06201172 C-76.93630997 87.78661183 -74.09031942 84.48977293 -71.25 81.1875 C-70.48067139 80.29925537 -70.48067139 80.29925537 -69.69580078 79.39306641 C-67.07177131 76.38790547 -67.07177131 76.38790547 -65 73 C-64.34 73 -63.68 73 -63 73 C-62.65195312 72.17242187 -62.65195312 72.17242187 -62.296875 71.328125 C-60.65178865 68.37489769 -58.56837049 66.20887779 -56.25 63.75 C-52.57274533 59.79110588 -49.22186221 55.81020129 -46.15625 51.36328125 C-45.58390625 50.68845703 -45.58390625 50.68845703 -45 50 C-44.34 50 -43.68 50 -43 50 C-42.67708984 49.21496094 -42.67708984 49.21496094 -42.34765625 48.4140625 C-40.46612461 45.0436667 -37.96630139 42.26701571 -35.4375 39.375 C-34.89955811 38.75326904 -34.36161621 38.13153809 -33.80737305 37.4909668 C-29.98509918 33.08720304 -26.08293518 28.75965738 -22.16015625 24.4453125 C-19.03430442 20.90682562 -16.08433474 17.23350855 -13.140625 13.54296875 C-10.8908586 10.87034479 -8.49928797 8.43930506 -6 6 C-5.40574219 5.40574219 -4.81148437 4.81148437 -4.19921875 4.19921875 C-2.79947917 2.79947917 -1.39973958 1.39973958 0 0 Z " fill="#172E40" transform="translate(240,158)"/>
<path d="M0 0 C4.52332459 -0.25129581 4.52332459 -0.25129581 6.90844727 1.00610352 C9.26742262 2.12707803 10.63071531 2.1627962 13.21484375 2.02734375 C17.85932359 1.92771752 22.0429178 2.53424328 26.5625 3.5625 C27.33698486 3.73813477 28.11146973 3.91376953 28.90942383 4.09472656 C37.07755173 6.07619067 44.4959233 9.26674062 52 13 C52.66193359 13.32548828 53.32386719 13.65097656 54.00585938 13.98632812 C61.30612999 17.61163258 68.12723186 21.42857119 74.36328125 26.75 C75.92166928 28.20231906 75.92166928 28.20231906 78 28 C78 28.66 78 29.32 78 30 C78.66 30 79.32 30 80 30 C82.54671849 32.45989854 84.72532523 35.28966008 87 38 C87.79277344 38.90621094 88.58554687 39.81242187 89.40234375 40.74609375 C96.69887937 49.21187391 103.75882909 58.14207746 107 69 C107.66 69 108.32 69 109 69 C117.37847058 94.18964131 121.67160158 117.70926703 116 144 C115.79697266 145.00667725 115.79697266 145.00667725 115.58984375 146.03369141 C113.71329713 155.14997311 110.39128887 162.75862053 105.8046875 170.7578125 C104.28913959 173.48055008 103.14471642 176.11551634 102 179 C100.68133728 180.678298 99.34919532 182.34614767 98 184 C97.67 184.99 97.34 185.98 97 187 C95.35511706 188.68816933 93.68662458 190.35353315 92 192 C91.443125 192.763125 90.88625 193.52625 90.3125 194.3125 C89.879375 194.869375 89.44625 195.42625 89 196 C88.34 196 87.68 196 87 196 C86.773125 196.556875 86.54625 197.11375 86.3125 197.6875 C76.3867508 215.17572479 50.21578282 225.57933158 31.98828125 230.875 C23.33427141 233.08906402 14.88286756 233.69560267 6 234 C4.61748047 234.07927734 4.61748047 234.07927734 3.20703125 234.16015625 C-9.9150345 234.62807487 -23.8741616 231.90360132 -36 227 C-36.6197168 226.75233887 -37.23943359 226.50467773 -37.87792969 226.24951172 C-56.59770311 218.6901252 -71.08050846 207.49283444 -85 193 C-85.66 192.34 -86.32 191.68 -87 191 C-90.94938574 186.32110989 -94.17814645 181.22237916 -97.25 175.9375 C-97.59111816 175.36032227 -97.93223633 174.78314453 -98.28369141 174.18847656 C-99.97123641 171.22625187 -101.24868162 168.41176496 -102.109375 165.12890625 C-102.40328125 164.09636719 -102.6971875 163.06382812 -103 162 C-103.66 161.67 -104.32 161.34 -105 161 C-105.33333333 158.66666667 -105.66666667 156.33333333 -106 154 C-106.66 153.67 -107.32 153.34 -108 153 C-109.01791854 149.75538465 -109.44790253 146.35110325 -110 143 C-110.17660156 141.93910156 -110.35320312 140.87820313 -110.53515625 139.78515625 C-114.5983512 113.50982892 -112.21369268 88.65045814 -99.55078125 64.953125 C-98.17922816 62.34130099 -97.0369448 59.75837532 -96 57 C-95.34 57 -94.68 57 -94 57 C-93.79375 56.175 -93.5875 55.35 -93.375 54.5 C-91.3666808 49.38791477 -88.35666504 44.71354582 -83.8671875 41.44921875 C-81.70821963 40.05056578 -81.70821963 40.05056578 -81 37 C-75.53488372 32 -75.53488372 32 -73 32 C-72.505 30.515 -72.505 30.515 -72 29 C-69.78515625 27.24609375 -69.78515625 27.24609375 -67.0625 25.4375 C-63.33955173 22.952948 -63.33955173 22.952948 -60 20 C-56.44444444 18 -56.44444444 18 -54 18 C-53.505 16.515 -53.505 16.515 -53 15 C-51.22265625 14.12109375 -51.22265625 14.12109375 -49.0625 13.4375 C-46.27149772 12.54093484 -45.12225355 12.12225355 -43 10 C-41.68 10 -40.36 10 -39 10 C-38.67 9.34 -38.34 8.68 -38 8 C-36.68 8 -35.36 8 -34 8 C-32.327767 7.34742127 -30.66072849 6.68132451 -29 6 C-28.01 6 -27.02 6 -26 6 C-25.67 5.34 -25.34 4.68 -25 4 C-23.68 4 -22.36 4 -21 4 C-20.319375 3.649375 -19.63875 3.29875 -18.9375 2.9375 C-17 2 -17 2 -14 3 C-11.59616968 2.75653872 -9.19976765 2.43482615 -6.8125 2.0625 C-5.54019531 1.86785156 -4.26789063 1.67320312 -2.95703125 1.47265625 C-1.98121094 1.31667969 -1.00539063 1.16070312 0 1 C0 0.67 0 0.34 0 0 Z M-14 30 C-10 31 -10 31 -10 31 Z M-46 43 C-46.33 43.66 -46.66 44.32 -47 45 C-46.34 45 -45.68 45 -45 45 C-45.33 44.34 -45.66 43.68 -46 43 Z M79 44 C80 46 80 46 80 46 Z M-49 45 C-48 47 -48 47 -48 47 Z M-65 60 C-64 62 -64 62 -64 62 Z M-68 64 C-67 66 -67 66 -67 66 Z M-91 68 C-90 70 -90 70 -90 70 Z M-10 73 C-10.33 73.66 -10.66 74.32 -11 75 C-10.34 75 -9.68 75 -9 75 C-9.33 74.34 -9.66 73.68 -10 73 Z M-95 76 C-94 78 -94 78 -94 78 Z M-79 84 C-78 86 -78 86 -78 86 Z M104 87 C105 89 105 89 105 89 Z M-4 88 C-3 90 -3 90 -3 90 Z M86 89 C87 91 87 91 87 91 Z M-7 92 C-6 94 -6 94 -6 94 Z M89 100 C90 102 90 102 90 102 Z M-2 103 C-1 105 -1 105 -1 105 Z M8 105 C9 107 9 107 9 107 Z M-85 108 C-84 110 -84 110 -84 110 Z M80 108 C80 109.65 80 111.3 80 113 C80.33 113 80.66 113 81 113 C81 111.35 81 109.7 81 108 C80.67 108 80.34 108 80 108 Z M108 111 C109 113 109 113 109 113 Z M80 114 C81 116 81 116 81 116 Z M108 122 C109 124 109 124 109 124 Z M-1 124 C-1 125.65 -1 127.3 -1 129 C-0.67 129 -0.34 129 0 129 C0 127.35 0 125.7 0 124 C-0.33 124 -0.66 124 -1 124 Z M108 125 C109 127 109 127 109 127 Z M9 128 C10 132 10 132 10 132 Z M11 129 C12 131 12 131 12 131 Z M-102 131 C-101 133 -101 133 -101 133 Z M-74 131 C-73 133 -73 133 -73 133 Z M107 132 C108 136 108 136 108 136 Z M15 133 C16 136 16 136 16 136 Z M16 136 C16 137.65 16 139.3 16 141 C16.33 141 16.66 141 17 141 C17 139.35 17 137.7 17 136 C16.67 136 16.34 136 16 136 Z M106 137 C107 141 107 141 107 141 Z M9 138 C9 141.3 9 144.6 9 148 C9.99 148 10.98 148 12 148 C11.34 147.67 10.68 147.34 10 147 C10 144.03 10 141.06 10 138 C9.67 138 9.34 138 9 138 Z M-1 139 C0 141 0 141 0 141 Z M-82 141 C-81 143 -81 143 -81 143 Z M15 141 C16 144 16 144 16 144 Z M13 145 C12.67 145.66 12.34 146.32 12 147 C12.66 147 13.32 147 14 147 C13.67 146.34 13.34 145.68 13 145 Z M-22 147 C-21 149 -21 149 -21 149 Z M72 152 C73 154 73 154 73 154 Z M71 154 C72 156 72 156 72 156 Z M100 158 C101 160 101 160 101 160 Z M77 164 C78 166 78 166 78 166 Z M97 164 C98 166 98 166 98 166 Z M96 166 C97 168 97 168 97 168 Z M92 173 C93 175 93 175 93 175 Z M-64 174 C-64 174.66 -64 175.32 -64 176 C-63.34 175.67 -62.68 175.34 -62 175 C-62.66 174.67 -63.32 174.34 -64 174 Z M40 185 C39.67 185.66 39.34 186.32 39 187 C39.66 187 40.32 187 41 187 C40.67 186.34 40.34 185.68 40 185 Z M53 189 C54 191 54 191 54 191 Z M75 194 C76 196 76 196 76 196 Z M73 196 C74 198 74 198 74 198 Z M8 223 C12 224 12 224 12 224 Z " fill="#172E40" transform="translate(399,389)"/>
<path d="M0 0 C-0.14447983 1.50013097 -0.29067215 3.00009702 -0.4375 4.5 C-0.55931641 5.75296875 -0.55931641 5.75296875 -0.68359375 7.03125 C-0.91172013 9.17169504 -1.20057608 11.30597313 -1.52734375 13.43359375 C-2.32815679 19.77866993 -2.1442187 26.17868728 -2.125 32.5625 C-2.12886719 33.85091797 -2.13273438 35.13933594 -2.13671875 36.46679688 C-2.13542969 37.71654297 -2.13414062 38.96628906 -2.1328125 40.25390625 C-2.13112061 41.94495483 -2.13112061 41.94495483 -2.12939453 43.67016602 C-2.05870566 47.09038012 -2.05870566 47.09038012 -1.42236328 50.79589844 C-1 54 -1 54 -2.109375 56.01171875 C-2.65078125 56.56472656 -3.1921875 57.11773437 -3.75 57.6875 C-8.45718206 63.39550815 -10.07952549 69.76394228 -9.94140625 77.12109375 C-8.82059515 86.19157532 -5.14694802 92.75553941 2 98.4375 C9.47496206 103.903566 18.08915197 103.90399908 27 103 C36.50653217 100.0276734 42.44375619 93.63381609 47 85 C47.91666667 82.58333333 47.91666667 82.58333333 48 80 C48.05027344 79.34386719 48.10054687 78.68773437 48.15234375 78.01171875 C48.51734333 69.55832846 46.16746849 62.47263519 40.87109375 55.85546875 C35.84582178 50.87216148 29.6760031 48.07654748 23 46 C22.17824553 14.21285145 22.17824553 14.21285145 28 1 C44.90436946 1.54469635 62.37640799 2.94703402 75.41796875 15.1953125 C99.58066812 42.75868807 97.96400752 93.39367547 100 128 C100.08677002 129.32209473 100.08677002 129.32209473 100.17529297 130.67089844 C105.62535341 213.76410483 105.62535341 213.76410483 90 247 C85.50206646 247 85.50206646 247 82.71484375 244.47265625 C82.10688965 243.93189453 81.49893555 243.39113281 80.87255859 242.83398438 C80.23398926 242.24939453 79.59541992 241.66480469 78.9375 241.0625 C77.59621311 239.86458417 76.25375639 238.66797693 74.91015625 237.47265625 C73.91846436 236.58537842 73.91846436 236.58537842 72.90673828 235.68017578 C69.488699 232.66827484 65.92857616 229.84023519 62.3671875 227 C58.76307762 223.95494347 55.62192508 220.93288762 53 217 C53.83144531 216.07380859 53.83144531 216.07380859 54.6796875 215.12890625 C59.20228805 209.84180917 63.05367807 205.21970107 63 198 C61.53722971 192.751236 59.55837341 189.96294272 55 187 C49.79273866 185.26424622 44.9150998 185.06199193 39.9375 187.5 C36.0692095 190.79216213 32.50917773 194.33050451 29 198 C28.55269531 197.61328125 28.10539063 197.2265625 27.64453125 196.828125 C27.03996094 196.30734375 26.43539062 195.7865625 25.8125 195.25 C25.17828125 194.7034375 24.5440625 194.156875 23.890625 193.59375 C22.31779514 192.26789342 20.69559234 191.00087924 19.0625 189.75 C18.381875 189.1725 17.70125 188.595 17 188 C17 187.34 17 186.68 17 186 C16.47664062 185.78472656 15.95328125 185.56945312 15.4140625 185.34765625 C12.0436667 183.46612461 9.26701571 180.96630139 6.375 178.4375 C5.75326904 177.89955811 5.13153809 177.36161621 4.4909668 176.80737305 C0.89278605 173.68430992 -2.66095451 170.51639205 -6.1875 167.3125 C-10.43846242 163.45178987 -14.84718899 159.82388063 -19.3125 156.21484375 C-22.70669227 153.41759518 -25.9723645 150.49354121 -29.22265625 147.53125 C-30.93262428 145.93160961 -30.93262428 145.93160961 -33 145 C-33 144.34 -33 143.68 -33 143 C-33.5775 142.731875 -34.155 142.46375 -34.75 142.1875 C-37.05550043 140.97070811 -39.02056192 139.69666121 -41 138 C-41 137.34 -41 136.68 -41 136 C-41.8971875 135.566875 -41.8971875 135.566875 -42.8125 135.125 C-45 134 -45 134 -48 132 C-48 131.34 -48 130.68 -48 130 C-48.59514404 129.72325439 -49.19028809 129.44650879 -49.8034668 129.16137695 C-51.86987272 128.06880243 -53.39916753 126.95680005 -55.14453125 125.41796875 C-55.73113525 124.90484131 -56.31773926 124.39171387 -56.92211914 123.86303711 C-57.54594482 123.31010986 -58.16977051 122.75718262 -58.8125 122.1875 C-60.16137235 121.00511024 -61.51033316 119.82282138 -62.859375 118.640625 C-63.54708984 118.03541016 -64.23480469 117.43019531 -64.94335938 116.80664062 C-68.13651057 114.00164076 -71.34937294 111.21956696 -74.5625 108.4375 C-75.17496582 107.90608398 -75.78743164 107.37466797 -76.41845703 106.82714844 C-79.57351621 104.09149039 -82.73699784 101.36633206 -85.9140625 98.65625 C-86.54755615 98.11556885 -87.1810498 97.5748877 -87.83374023 97.01782227 C-89.03245188 95.99592572 -90.2324022 94.97547962 -91.43383789 93.95678711 C-94.41575161 91.41512617 -97.27583755 88.8169563 -100 86 C-99.60167969 85.56429687 -99.20335937 85.12859375 -98.79296875 84.6796875 C-93.36099541 78.57367367 -90.36266085 73.77795812 -90.65234375 65.40234375 C-91.18303211 61.73522753 -92.50136531 59.69589532 -95 57 C-99.73633969 53.69557696 -104.38805641 53.11017831 -110 54 C-115.18607822 56.5421952 -118.47344951 60.54804264 -122 65 C-126.4603483 63.58079827 -129.32845936 61.1338319 -132.625 57.9375 C-137.37848067 53.4495357 -142.28065329 49.25057133 -147.375 45.1484375 C-151.35916865 41.88758518 -155.18553422 38.45656529 -159 35 C-157.18975531 29.56926593 -150.88843391 27.52452357 -145.99707031 24.99462891 C-125.40498843 14.73886588 -101.40535102 11.73168316 -78.88134766 8.42480469 C-76.19334256 8.028505 -73.5087293 7.61452467 -70.82421875 7.1953125 C-47.75921863 3.66342125 -23.35836927 0 0 0 Z " fill="#172E40" transform="translate(407,119)"/>
<path d="M0 0 C11.88774475 8.62962211 19.19112061 21.86043523 21.68359375 36.25390625 C24.86110985 63.83160769 12.55079497 90.89876686 -4.18652344 112.15917969 C-11.33694911 120.91644259 -19.26183647 129.79371841 -28 137 C-28.66 137 -29.32 137 -30 137 C-30 137.66 -30 138.32 -30 139 C-32.046875 140.65625 -32.046875 140.65625 -34.75 142.5 C-35.63171875 143.1084375 -36.5134375 143.716875 -37.421875 144.34375 C-39.57481686 145.72685204 -41.68545332 146.91843613 -44 148 C-45.29925791 143.66914029 -46.343621 139.48525648 -47 135 C-46.50113281 134.70609375 -46.00226563 134.4121875 -45.48828125 134.109375 C-19.02826372 117.57780211 0.9067685 88.64072146 8.60546875 58.640625 C10.62400156 45.13044501 10.00780749 30.36237706 1.6875 19.0625 C-7.92456263 7.92309691 -18.45597761 3.10369206 -33.0234375 1.7109375 C-49.7996437 0.9239056 -66.56619791 8.68341373 -79.0390625 19.4609375 C-81 21 -81 21 -83 21 C-83 21.66 -83 22.32 -83 23 C-84.06380389 23.96321498 -85.1795922 24.86910175 -86.3125 25.75 C-97.18637 35.06771546 -104.53507983 47.3948104 -111 60 C-111.47928955 60.92184082 -111.47928955 60.92184082 -111.96826172 61.86230469 C-125.04344984 87.30185001 -132.50041344 119.04199062 -125.1484375 147.26953125 C-122.97912897 153.85682179 -120.23322037 157.48527304 -114.75 161.75 C-110.91879449 163.49145705 -107.1674528 163.73669688 -103 164 C-102.94577053 165.4370809 -102.90710277 166.87475462 -102.875 168.3125 C-102.85179687 169.11300781 -102.82859375 169.91351563 -102.8046875 170.73828125 C-103 173 -103 173 -105 176 C-112.00902911 176.85824846 -118.67904085 174.66623042 -124.625 171 C-134.71197443 163.0895653 -137.74566537 150.22007297 -139.5859375 138.16015625 C-143.83177661 100.95744975 -130.5732386 60.0789969 -107.6875 30.6875 C-91.36809013 10.50235758 -71.12737671 -5.48369631 -45 -10 C-44.18015625 -10.18175781 -43.3603125 -10.36351563 -42.515625 -10.55078125 C-26.80441308 -13.35635481 -12.89416306 -8.63768602 0 0 Z " fill="#172E40" transform="translate(551,27)"/>
<path d="M0 0 C3.78849156 1.09319657 5.57332689 2.67537207 8.390625 5.40625 C11.50190661 8.52940614 11.50190661 8.52940614 15.140625 10.90625 C15.140625 11.56625 15.140625 12.22625 15.140625 12.90625 C15.8625 13.133125 16.584375 13.36 17.328125 13.59375 C20.70644827 15.17030086 22.57859238 17.21611575 25.140625 19.90625 C26.06875 20.628125 26.996875 21.35 27.953125 22.09375 C29.0359375 22.9909375 29.0359375 22.9909375 30.140625 23.90625 C30.140625 24.56625 30.140625 25.22625 30.140625 25.90625 C30.6975 26.1125 31.254375 26.31875 31.828125 26.53125 C35.14527478 28.50360933 36.99210367 30.71416117 39.140625 33.90625 C39.6310429 39.42345136 36.08501154 43.03297601 32.83203125 47.1484375 C32.27386719 47.72851562 31.71570313 48.30859375 31.140625 48.90625 C30.480625 48.90625 29.820625 48.90625 29.140625 48.90625 C28.82158203 49.68742187 28.82158203 49.68742187 28.49609375 50.484375 C26.57363567 53.91931451 24.04143437 56.70466914 21.453125 59.65625 C20.36175852 60.90475507 19.27061149 62.15345201 18.1796875 63.40234375 C17.65407227 64.00288574 17.12845703 64.60342773 16.58691406 65.22216797 C15.36882068 66.64053532 14.19805711 68.09935174 13.0390625 69.56640625 C10.2660569 73.05482197 8.81757082 74.67282041 4.515625 76.15625 C0.44057827 75.85439469 -1.08301604 74.85087314 -3.859375 71.90625 C-3.859375 71.24625 -3.859375 70.58625 -3.859375 69.90625 C-4.74882812 69.49439453 -4.74882812 69.49439453 -5.65625 69.07421875 C-7.76777425 67.95481139 -9.32742707 66.79741747 -11.109375 65.21875 C-11.71249512 64.68975098 -12.31561523 64.16075195 -12.93701172 63.61572266 C-13.88858154 62.76953369 -13.88858154 62.76953369 -14.859375 61.90625 C-20.55834802 56.8571551 -20.55834802 56.8571551 -26.4765625 52.0703125 C-27.02828125 51.63847656 -27.58 51.20664062 -28.1484375 50.76171875 C-29.6436769 49.60161922 -31.15344971 48.46032162 -32.6640625 47.3203125 C-35.59911756 44.09279644 -36.00381787 42.25351432 -35.859375 37.90625 C-34.61219181 35.27459231 -32.92396903 33.18113011 -31.046875 30.96875 C-30.58216797 30.38029297 -30.11746094 29.79183594 -29.63867188 29.18554688 C-28.44125648 27.70638668 -27.15601509 26.29924784 -25.859375 24.90625 C-25.199375 24.90625 -24.539375 24.90625 -23.859375 24.90625 C-23.58464355 24.31384521 -23.30991211 23.72144043 -23.02685547 23.11108398 C-21.90963928 21.00117612 -20.7456341 19.41944754 -19.1796875 17.62890625 C-18.66277344 17.03271484 -18.14585937 16.43652344 -17.61328125 15.82226562 C-17.07574219 15.21060547 -16.53820312 14.59894531 -15.984375 13.96875 C-14.92371946 12.7519639 -13.86380924 11.53452765 -12.8046875 10.31640625 C-12.2984082 9.73648926 -11.79212891 9.15657227 -11.27050781 8.55908203 C-10.02754064 7.10321909 -8.84091661 5.59965125 -7.6640625 4.08984375 C-5.25605603 1.17626016 -3.86077862 -0.12658291 0 0 Z M-0.859375 10.90625 C-2.68689807 12.94464112 -4.46885168 15.00250252 -6.234375 17.09375 C-6.76587158 17.71999268 -7.29736816 18.34623535 -7.8449707 18.99145508 C-8.95804215 20.30334219 -10.0700812 21.61610585 -11.18115234 22.9296875 C-12.80013106 24.83647419 -14.43101034 26.73228832 -16.06640625 28.625 C-17.05997368 29.78118311 -18.05346643 30.9374304 -19.046875 32.09375 C-19.51593262 32.63346436 -19.98499023 33.17317871 -20.46826172 33.72924805 C-22.51893766 36.12986216 -23.84926654 37.87592461 -24.859375 40.90625 C-24.20453125 41.42832031 -23.5496875 41.95039063 -22.875 42.48828125 C-16.56566359 47.57674324 -10.57133574 52.85933487 -4.68359375 58.42578125 C-1.84866491 60.91565651 0.96179496 62.89189536 4.140625 64.90625 C5.31323111 63.61997289 6.4785533 62.32705217 7.640625 61.03125 C8.2903125 60.31195313 8.94 59.59265625 9.609375 58.8515625 C11.34679772 57.05693902 11.34679772 57.05693902 11.140625 54.90625 C11.800625 54.90625 12.460625 54.90625 13.140625 54.90625 C14.43104414 53.45860738 15.64829634 51.94535851 16.828125 50.40625 C20.03356431 46.28078515 23.35825582 42.34775928 26.890625 38.5 C28.34633831 36.98154429 28.34633831 36.98154429 28.140625 34.90625 C27.480625 34.90625 26.820625 34.90625 26.140625 34.90625 C26.140625 34.24625 26.140625 33.58625 26.140625 32.90625 C24.67371941 31.5735312 23.13739999 30.31711131 21.578125 29.09375 C15.91318148 24.57361254 10.44335647 19.86346776 5.00561523 15.07299805 C2.39639564 12.24174558 2.39639564 12.24174558 -0.859375 10.90625 Z " fill="#172E40" transform="translate(184.859375,314.09375)"/>
<path d="M0 0 C2.38671875 1.65234375 2.38671875 1.65234375 4.6875 3.9375 C8.20875293 7.31071226 11.76115421 10.50651613 15.5625 13.5625 C19.90514657 17.07239474 24.09609792 20.70783608 28.22265625 24.46875 C29.93262428 26.06839039 29.93262428 26.06839039 32 27 C32 27.66 32 28.32 32 29 C33.485 29.495 33.485 29.495 35 30 C36.375 32.6875 36.375 32.6875 37 36 C35.22991079 40.29549337 32.99197449 43.39607646 29.8125 46.75 C26.76956961 50.03303279 23.87747357 53.34502359 21.125 56.875 C7.11445106 74.67830361 7.11445106 74.67830361 2.35546875 75.40234375 C-2.16799105 74.85994985 -4.48335008 72.55869906 -7.6875 69.5625 C-8.92735783 68.44937519 -10.16825388 67.33740578 -11.41015625 66.2265625 C-12.01875488 65.67516602 -12.62735352 65.12376953 -13.25439453 64.55566406 C-15.64197363 62.42788028 -18.12593892 60.43239636 -20.625 58.4375 C-22.42186858 56.9646569 -24.21327691 55.48513437 -26 54 C-26.54027832 53.55237305 -27.08055664 53.10474609 -27.63720703 52.64355469 C-29.33807095 51.21896584 -31.01455489 49.76971673 -32.6875 48.3125 C-33.21746582 47.87284912 -33.74743164 47.43319824 -34.29345703 46.98022461 C-36.88228868 44.68023666 -37.94202286 43.37284487 -38.48046875 39.91015625 C-37.99273444 36.95599313 -37.42965585 35.47209576 -35.625 33.125 C-35.18414062 32.52945313 -34.74328125 31.93390625 -34.2890625 31.3203125 C-33.86367187 30.88460938 -33.43828125 30.44890625 -33 30 C-32.34 30 -31.68 30 -31 30 C-30.66162109 29.19755859 -30.66162109 29.19755859 -30.31640625 28.37890625 C-28.57357316 25.22939482 -26.28817985 22.63973958 -23.9375 19.9375 C-22.94571273 18.7846294 -21.95484243 17.63096937 -20.96484375 16.4765625 C-20.46839355 15.8980957 -19.97194336 15.31962891 -19.46044922 14.72363281 C-16.52411865 11.25815407 -13.70469927 7.6972603 -10.875 4.14453125 C-7.47174145 0.25205428 -5.06018911 -0.60467669 0 0 Z M-4 11 C-7.63633539 14.47998507 -7.63633539 14.47998507 -9 19 C-9.66 19 -10.32 19 -11 19 C-12.84847311 21.1729233 -14.5921349 23.35402668 -16.3125 25.625 C-17.26605123 26.86785997 -18.22047237 28.11005302 -19.17578125 29.3515625 C-19.87501709 30.26276855 -19.87501709 30.26276855 -20.58837891 31.19238281 C-22.66313463 33.84916098 -24.82500079 36.42486432 -27 39 C-23.26797131 44.01893514 -18.8794033 47.64920444 -14.00390625 51.54296875 C-9.16091277 55.50427291 -4.58879986 59.74848137 0 64 C3.59721356 62.5045292 5.63097221 60.47293692 8.1875 57.5625 C8.96867187 56.67433594 9.74984375 55.78617187 10.5546875 54.87109375 C13.75428082 51.11438274 16.87380096 47.29794634 19.95703125 43.4453125 C21.86578536 41.16064697 23.86038803 39.06749022 26 37 C24.44803391 32.89633507 21.49691774 30.62105966 18.1875 27.9375 C17.01790607 26.97174533 15.84864546 26.00558686 14.6796875 25.0390625 C14.07608398 24.5430957 13.47248047 24.04712891 12.85058594 23.53613281 C10.98826314 21.99025748 9.15136679 20.41868011 7.3203125 18.8359375 C6.7322583 18.3294165 6.1442041 17.82289551 5.53833008 17.30102539 C4.40268211 16.32153103 3.26962703 15.33902098 2.1394043 14.35327148 C-0.54753569 11.78686282 -0.54753569 11.78686282 -4 11 Z " fill="#172E40" transform="translate(144,366)"/>
<path d="M0 0 C2.21383559 2.02907918 4.37676151 3.76602606 6.85546875 5.4453125 C7.78359375 6.1053125 8.71171875 6.7653125 9.66796875 7.4453125 C9.66796875 8.1053125 9.66796875 8.7653125 9.66796875 9.4453125 C10.209375 9.67863281 10.75078125 9.91195313 11.30859375 10.15234375 C14.35162127 11.81996314 16.79228579 13.86486148 19.41796875 16.1328125 C20.4028125 16.96167969 21.38765625 17.79054688 22.40234375 18.64453125 C24.66796875 21.4453125 24.66796875 21.4453125 25.24609375 24.94140625 C24.56601032 29.06326326 23.42496848 30.7186878 20.66796875 33.8203125 C19.848125 34.76132812 19.02828125 35.70234375 18.18359375 36.671875 C17.3534375 37.58710938 16.52328125 38.50234375 15.66796875 39.4453125 C14.25086147 41.02825149 12.83416135 42.61155513 11.41796875 44.1953125 C10.44730469 45.26845703 10.44730469 45.26845703 9.45703125 46.36328125 C7.75860368 48.3398356 6.26520683 50.35972244 4.79296875 52.5078125 C3.74109375 53.961875 3.74109375 53.961875 2.66796875 55.4453125 C2.00796875 55.4453125 1.34796875 55.4453125 0.66796875 55.4453125 C0.44109375 56.0021875 0.21421875 56.5590625 -0.01953125 57.1328125 C-1.77713919 60.2295503 -3.54344793 62.21444584 -6.33203125 64.4453125 C-10.88291012 65.10478117 -12.78201405 64.81961161 -16.62109375 62.20703125 C-17.74836286 61.1991358 -18.85974172 60.17326652 -19.95703125 59.1328125 C-21.18164367 58.02662595 -22.40691964 56.92117362 -23.6328125 55.81640625 C-24.24721191 55.2529248 -24.86161133 54.68944336 -25.49462891 54.10888672 C-28.31187836 51.55816419 -31.22901813 49.13217863 -34.14453125 46.6953125 C-35.20762632 45.78976063 -36.2701418 44.88352783 -37.33203125 43.9765625 C-39.24441786 42.3629863 -41.18006318 40.77630954 -43.14453125 39.2265625 C-49.19209506 34.31291691 -49.19209506 34.31291691 -49.95703125 29.5703125 C-49.33203125 26.4453125 -49.33203125 26.4453125 -48.33203125 24.4453125 C-47.67203125 24.4453125 -47.01203125 24.4453125 -46.33203125 24.4453125 C-45.91884644 23.55453003 -45.91884644 23.55453003 -45.49731445 22.64575195 C-44.38959009 20.55400259 -43.24836082 19.00452568 -41.6875 17.23828125 C-41.17509766 16.65111328 -40.66269531 16.06394531 -40.13476562 15.45898438 C-39.60173828 14.85634766 -39.06871094 14.25371094 -38.51953125 13.6328125 C-35.34088379 10.02982149 -32.29073004 6.4624126 -29.5703125 2.49609375 C-28.83167969 1.48933594 -28.09304687 0.48257812 -27.33203125 -0.5546875 C-26.67203125 -0.5546875 -26.01203125 -0.5546875 -25.33203125 -0.5546875 C-25.08453125 -1.1115625 -24.83703125 -1.6684375 -24.58203125 -2.2421875 C-22.77124892 -5.59213482 -20.92172058 -8.67761752 -17.51953125 -10.5546875 C-9.92364755 -10.5546875 -5.15175642 -4.87462746 0 0 Z M-15.33203125 0.4453125 C-16.83790575 2.23204455 -18.33657975 4.02484758 -19.83203125 5.8203125 C-20.66734375 6.81804687 -21.50265625 7.81578125 -22.36328125 8.84375 C-24.53317881 11.16735958 -24.53317881 11.16735958 -24.33203125 13.4453125 C-24.99203125 13.4453125 -25.65203125 13.4453125 -26.33203125 13.4453125 C-28.37659184 15.61795905 -28.37659184 15.61795905 -30.45703125 18.3203125 C-31.54371094 19.67769531 -31.54371094 19.67769531 -32.65234375 21.0625 C-34.52408359 23.23187061 -34.52408359 23.23187061 -34.33203125 25.4453125 C-34.99203125 25.4453125 -35.65203125 25.4453125 -36.33203125 25.4453125 C-37.32203125 27.9203125 -37.32203125 27.9203125 -38.33203125 30.4453125 C-26.32992035 42.39475516 -26.32992035 42.39475516 -12.33203125 51.4453125 C-12.33203125 52.1053125 -12.33203125 52.7653125 -12.33203125 53.4453125 C-10.84703125 53.9403125 -10.84703125 53.9403125 -9.33203125 54.4453125 C-8.01430763 52.84543394 -6.70301988 51.24025284 -5.39453125 49.6328125 C-4.29818359 48.29283203 -4.29818359 48.29283203 -3.1796875 46.92578125 C-1.18020434 44.51168331 -1.18020434 44.51168331 -0.33203125 41.4453125 C0.32796875 41.4453125 0.98796875 41.4453125 1.66796875 41.4453125 C3.71252934 39.27266595 3.71252934 39.27266595 5.79296875 36.5703125 C6.51742187 35.66539062 7.241875 34.76046875 7.98828125 33.828125 C9.86002109 31.65875439 9.86002109 31.65875439 9.66796875 29.4453125 C10.32796875 29.4453125 10.98796875 29.4453125 11.66796875 29.4453125 C13.31263615 26.98204538 13.31263615 26.98204538 14.66796875 24.4453125 C14.12011719 24.01863281 13.57226562 23.59195313 13.0078125 23.15234375 C6.80987199 18.26453701 0.83599933 13.16898124 -5.06469727 7.92700195 C-8.33316149 5.05291084 -11.48298782 2.53479322 -15.33203125 0.4453125 Z " fill="#172E40" transform="translate(250.33203125,368.5546875)"/>
<path d="M0 0 C3.88373625 0.6213978 6.08806259 2.04152686 9.125 4.5 C9.125 5.16 9.125 5.82 9.125 6.5 C9.723125 6.78875 10.32125 7.0775 10.9375 7.375 C13.125 8.5 13.125 8.5 16.125 10.5 C16.125 11.16 16.125 11.82 16.125 12.5 C16.71740479 12.77473145 17.30980957 13.04946289 17.92016602 13.33251953 C20.03007388 14.44973572 21.61180246 15.6137409 23.40234375 17.1796875 C23.99853516 17.69660156 24.59472656 18.21351563 25.20898438 18.74609375 C25.82064453 19.28363281 26.43230469 19.82117188 27.0625 20.375 C28.2792861 21.43565554 29.49672235 22.49556576 30.71484375 23.5546875 C31.58278564 24.31217285 31.58278564 24.31217285 32.46826172 25.08496094 C33.9475478 26.34843605 35.47310679 27.55726693 37.00390625 28.7578125 C39.89862718 31.13542859 40.07603231 32.02495717 40.46484375 35.796875 C40.04680629 40.35204177 38.89350492 41.5683939 35.6875 44.75 C34.31078125 46.16925781 34.31078125 46.16925781 32.90625 47.6171875 C32.43703125 48.09639648 31.9678125 48.57560547 31.484375 49.06933594 C29.42478787 51.23693303 27.561255 53.54638419 25.6875 55.875 C24.96046875 56.76703125 24.2334375 57.6590625 23.484375 58.578125 C22.23603221 60.12408594 20.98965817 61.67174278 19.75976562 63.23242188 C18.33256982 65.04124166 16.88627279 66.83344052 15.4375 68.625 C14.99801025 69.19395996 14.55852051 69.76291992 14.10571289 70.34912109 C11.93485865 73.00450837 10.36668114 74.41558356 7.10546875 75.5546875 C1.08693564 75.4442557 -2.78368345 71.02631977 -7.125 67.25 C-11.74945461 63.26667645 -16.44049978 59.45459711 -21.36328125 55.83984375 C-21.86214844 55.39769531 -22.36101562 54.95554687 -22.875 54.5 C-22.875 53.84 -22.875 53.18 -22.875 52.5 C-23.7721875 52.066875 -23.7721875 52.066875 -24.6875 51.625 C-26.875 50.5 -26.875 50.5 -29.875 48.5 C-29.875 47.84 -29.875 47.18 -29.875 46.5 C-30.865 46.17 -31.855 45.84 -32.875 45.5 C-34.25 42.8125 -34.25 42.8125 -34.875 39.5 C-33.5 36.125 -33.5 36.125 -31.875 33.5 C-31.215 33.5 -30.555 33.5 -29.875 33.5 C-29.65972656 32.97535156 -29.44445312 32.45070313 -29.22265625 31.91015625 C-27.34641768 28.55468031 -24.84022631 25.80899083 -22.3125 22.9375 C-21.22679842 21.68972897 -20.14217447 20.44101951 -19.05859375 19.19140625 C-18.52089355 18.57152832 -17.98319336 17.95165039 -17.42919922 17.31298828 C-14.48001785 13.87273996 -11.64830672 10.3387042 -8.8125 6.8046875 C-3.62141809 0.62981184 -3.62141809 0.62981184 0 0 Z M0.125 11.5 C-1.21427721 12.95287661 -2.54626847 14.41247259 -3.875 15.875 C-4.6175 16.68710937 -5.36 17.49921875 -6.125 18.3359375 C-8.08459813 20.29533992 -8.08459813 20.29533992 -7.875 22.5 C-8.535 22.5 -9.195 22.5 -9.875 22.5 C-11.7665307 24.71418617 -13.55149679 26.93566984 -15.3125 29.25 C-15.80298828 29.88421875 -16.29347656 30.5184375 -16.79882812 31.171875 C-19.18371563 34.2616078 -21.54325338 37.36992657 -23.875 40.5 C-22.885 40.83 -21.895 41.16 -20.875 41.5 C-20.875 42.16 -20.875 42.82 -20.875 43.5 C-17.81941577 46.52517909 -17.81941577 46.52517909 -13.875 47.5 C-13.545 48.49 -13.215 49.48 -12.875 50.5 C-10.83094327 52.41890244 -10.83094327 52.41890244 -8.3125 54.3125 C-7.41660156 55.00988281 -6.52070313 55.70726562 -5.59765625 56.42578125 C-2.03820256 59.13750279 1.52355688 61.84418719 5.125 64.5 C10.1238884 59.79043633 14.46680371 54.71412259 18.76953125 49.3671875 C22.40457445 44.94244171 26.25424333 40.71848422 30.125 36.5 C16.64506919 21.78694033 16.64506919 21.78694033 0.125 11.5 Z " fill="#172E40" transform="translate(191.875,409.5)"/>
<path d="M0 0 C2.28588568 1.55045067 4.41483932 3.09487738 6.5625 4.8125 C7.11357422 5.23853516 7.66464844 5.66457031 8.23242188 6.10351562 C11.73973305 8.85361371 14.87715464 11.81219945 18 15 C19.82238298 16.69931976 21.65591031 18.38676119 23.5 20.0625 C24.87671875 21.31740234 24.87671875 21.31740234 26.28125 22.59765625 C28.07000322 24.17823561 29.90374273 25.70953959 31.78125 27.18359375 C34.4742406 29.38824274 34.89705837 30.26225162 35.375 33.6875 C34.88418924 38.02299508 33.03634599 40.89004563 30 44 C29.34 44 28.68 44 28 44 C27.78601563 44.52335937 27.57203125 45.04671875 27.3515625 45.5859375 C25.45031396 48.98180917 22.94095362 51.71344746 20.375 54.625 C15.97863142 59.66261562 11.74961944 64.77024092 7.71875 70.109375 C5.90858862 72.10055252 4.50032282 73.04459209 2 74 C-3.16281771 74 -7.36833906 70.39736023 -11 67 C-11 66.34 -11 65.68 -11 65 C-11.52335937 64.78472656 -12.04671875 64.56945312 -12.5859375 64.34765625 C-15.9560761 62.46626819 -18.73402194 59.96725272 -21.625 57.4375 C-22.23947998 56.9024585 -22.85395996 56.36741699 -23.48706055 55.81616211 C-24.73332077 54.72915075 -25.97804498 53.64037572 -27.22119141 52.54980469 C-28.83548446 51.1433358 -30.46578064 49.75948628 -32.10546875 48.3828125 C-33.44544922 47.23425781 -33.44544922 47.23425781 -34.8125 46.0625 C-35.99779297 45.05896484 -35.99779297 45.05896484 -37.20703125 44.03515625 C-39.39638175 41.55007649 -40.01485167 40.32182424 -40 37 C-37.41597335 32.27856858 -33.82817964 28.30118052 -30.3125 24.25 C-26.79907939 20.37416382 -26.79907939 20.37416382 -24 16 C-23.34 16 -22.68 16 -22 16 C-21.77054687 15.46632813 -21.54109375 14.93265625 -21.3046875 14.3828125 C-19.59135579 11.25367374 -17.40102284 8.60224603 -15.125 5.875 C-14.69058594 5.33746094 -14.25617188 4.79992187 -13.80859375 4.24609375 C-9.17798206 -1.33010832 -6.87093627 -3.09998979 0 0 Z M-5 9 C-6.70366794 10.91358417 -8.36015482 12.8451803 -10 14.8125 C-10.49185791 15.399104 -10.98371582 15.98570801 -11.49047852 16.59008789 C-12.99721984 18.39044811 -14.49901707 20.19483777 -16 22 C-16.44069824 22.52754883 -16.88139648 23.05509766 -17.33544922 23.59863281 C-21.48835525 28.57436064 -25.57468195 33.48970575 -29 39 C-28.06994141 39.74830078 -28.06994141 39.74830078 -27.12109375 40.51171875 C-22.68610627 44.10748007 -18.29069172 47.72550267 -14 51.4921875 C-13.32654541 52.08298096 -12.65309082 52.67377441 -11.95922852 53.2824707 C-10.61998525 54.4616064 -9.28447312 55.64499451 -7.95288086 56.83276367 C-4.92645727 59.91407881 -4.92645727 59.91407881 -1 61 C-1 61.66 -1 62.32 -1 63 C2.6658428 61.7780524 3.48711882 60.41129653 5.8125 57.375 C8.29821155 54.16792668 10.80547665 51.03373888 13.5 48 C16.2133948 45.39478038 16.2133948 45.39478038 16 43 C16.66 43 17.32 43 18 43 C21.63633539 39.52001493 21.63633539 39.52001493 23 35 C23.66 34.67 24.32 34.34 25 34 C18.66581456 28.13138332 12.24715929 22.47406974 5.5234375 17.05078125 C3.26923828 15.2188082 1.06467293 13.34564355 -1.125 11.4375 C-3.49892257 8.89221912 -3.49892257 8.89221912 -5 9 Z " fill="#172E40" transform="translate(283,308)"/>
<path d="M0 0 C2.82421875 2.28515625 2.82421875 2.28515625 5.6875 5.0625 C6.73338177 6.05840565 7.78160948 7.05185278 8.83203125 8.04296875 C9.35748535 8.53974121 9.88293945 9.03651367 10.42431641 9.54833984 C13.62791723 12.49978244 17.03703734 15.20104226 20.4296875 17.9296875 C21.27789062 18.61289062 22.12609375 19.29609375 23 20 C24.08539063 20.7115625 25.17078125 21.423125 26.2890625 22.15625 C29.60302911 25.63257232 29.75045512 27.34092236 29.68139648 31.99267578 C29.59160522 33.29567627 29.59160522 33.29567627 29.5 34.625 C29.44593994 35.5207373 29.39187988 36.41647461 29.33618164 37.33935547 C28.45696336 46.11244217 24.48167361 50.27811736 18 56 C16.5446054 57.71792637 15.12548831 59.46745229 13.75 61.25 C12.78707031 62.46236328 12.78707031 62.46236328 11.8046875 63.69921875 C10.65061309 65.17053872 9.50868788 66.6515226 8.3828125 68.14453125 C5.992361 71.1852351 4.633906 72.76713657 0.9375 74.125 C-2.55617482 73.97633299 -4.27674278 73.16258662 -7 71 C-7 70.34 -7 69.68 -7 69 C-7.89054077 68.58705688 -7.89054077 68.58705688 -8.79907227 68.16577148 C-10.89558892 67.05530371 -12.44507002 65.91308946 -14.21484375 64.34765625 C-14.81280762 63.82381348 -15.41077148 63.2999707 -16.02685547 62.76025391 C-16.97262451 61.91986572 -16.97262451 61.91986572 -17.9375 61.0625 C-21.84417662 57.60648265 -25.73954623 54.16753944 -29.83984375 50.94140625 C-30.43611572 50.46501709 -31.0323877 49.98862793 -31.64672852 49.49780273 C-32.76952414 48.60594233 -33.90371356 47.72817594 -35.05053711 46.86743164 C-37.86068566 44.60778445 -38.98918471 43.03297345 -40.12109375 39.58203125 C-39.9715117 35.1572976 -38.42303897 32.84103318 -35.6875 29.5625 C-35.27048828 29.02173828 -34.85347656 28.48097656 -34.42382812 27.92382812 C-33.34553526 26.56349374 -32.17835816 25.27463609 -31 24 C-30.34 24 -29.68 24 -29 24 C-28.75378906 23.44570313 -28.50757813 22.89140625 -28.25390625 22.3203125 C-23.18743854 12.94497974 -11.51424792 -5.01175033 0 0 Z M-6 10 C-6.33 10.99 -6.66 11.98 -7 13 C-7.66 13 -8.32 13 -9 13 C-10.41438406 14.57286684 -11.75604401 16.21139996 -13.0625 17.875 C-16.89952413 22.69301088 -20.91547124 27.2424194 -25.15234375 31.7109375 C-27.05342652 34.06619015 -28.03712713 36.14666993 -29 39 C-27.54712339 40.33927721 -26.08752741 41.67126847 -24.625 43 C-23.81289062 43.7425 -23.00078125 44.485 -22.1640625 45.25 C-20.20466008 47.20959813 -20.20466008 47.20959813 -18 47 C-18 47.66 -18 48.32 -18 49 C-16.02796088 50.83924824 -16.02796088 50.83924824 -13.5 52.75 C-12.14261719 53.80960937 -12.14261719 53.80960937 -10.7578125 54.890625 C-7.1904284 57.61921907 -3.61474277 60.33437963 0 63 C1.00593243 61.8803014 2.0045849 60.7540588 3 59.625 C3.8353125 58.68527344 3.8353125 58.68527344 4.6875 57.7265625 C6.20172487 56.09610167 6.20172487 56.09610167 6 54 C6.66 54 7.32 54 8 54 C9.26928798 52.57279591 10.46538593 51.08016224 11.625 49.5625 C15.55412118 44.51796896 19.70233227 39.73200649 24 35 C20.33133644 30.4857225 16.66465192 26.49848894 12 23 C11.34 23 10.68 23 10 23 C10 22.34 10 21.68 10 21 C8.51363242 19.6393991 8.51363242 19.6393991 6.625 18.375 C5.99851563 17.92898438 5.37203125 17.48296875 4.7265625 17.0234375 C3.04777357 15.83003031 3.04777357 15.83003031 1 16 C0.773125 15.38125 0.54625 14.7625 0.3125 14.125 C-1.37929835 11.38589791 -2.99244161 10.94975528 -6 10 Z " fill="#172E40" transform="translate(249,455)"/>
<path d="M0 0 C2.2890625 1.75 2.2890625 1.75 4.625 4 C10.54713368 9.54978395 16.67449433 14.95612564 23.3203125 19.6328125 C24.15175781 20.30957031 24.15175781 20.30957031 25 21 C25 21.66 25 22.32 25 23 C25.5775 23.268125 26.155 23.53625 26.75 23.8125 C29.05550043 25.02929189 31.02056192 26.30333879 33 28 C33 28.66 33 29.32 33 30 C33.66 30 34.32 30 35 30 C35.495 31.485 35.495 31.485 36 33 C34.906875 33.309375 33.81375 33.61875 32.6875 33.9375 C30.44592006 34.58337897 28.2130649 35.2623117 26 36 C23.8125 34.5 23.8125 34.5 21 32 C20.4225 31.50113281 19.845 31.00226563 19.25 30.48828125 C16.30067197 27.93735035 13.38649279 25.35317445 10.5078125 22.72265625 C9.65960938 21.94792969 8.81140625 21.17320312 7.9375 20.375 C7.16277344 19.66085937 6.38804687 18.94671875 5.58984375 18.2109375 C2.51883519 15.58923185 -0.68879519 13.31014289 -4 11 C-4.77085937 12.010625 -5.54171875 13.02125 -6.3359375 14.0625 C-7.34863184 15.37525193 -8.3616705 16.6877383 -9.375 18 C-9.88289063 18.66773438 -10.39078125 19.33546875 -10.9140625 20.0234375 C-11.40390625 20.65507812 -11.89375 21.28671875 -12.3984375 21.9375 C-12.84880371 22.52402344 -13.29916992 23.11054688 -13.76318359 23.71484375 C-14.17133301 24.13894531 -14.57948242 24.56304687 -15 25 C-15.66 25 -16.32 25 -17 25 C-17.24492187 25.56460937 -17.48984375 26.12921875 -17.7421875 26.7109375 C-19.70756455 30.28767959 -22.54867322 33.00765352 -25.3203125 35.9765625 C-27.2129074 37.81818544 -27.2129074 37.81818544 -27 40 C-25.43581846 41.28463521 -25.43581846 41.28463521 -23.5 42.5 C-21.53125 43.78125 -21.53125 43.78125 -20 45 C-20 45.66 -20 46.32 -20 47 C-19.46375 47.226875 -18.9275 47.45375 -18.375 47.6875 C-15.21499137 49.43382056 -12.7323017 51.6402849 -10 54 C-11.33332095 57.99996286 -13.4957827 58.83782337 -17 61 C-18.17219543 60.21654285 -19.33763668 59.42297164 -20.5 58.625 C-21.1496875 58.18414062 -21.799375 57.74328125 -22.46875 57.2890625 C-23.22671875 56.65097656 -23.22671875 56.65097656 -24 56 C-24 55.34 -24 54.68 -24 54 C-24.55300781 53.75894531 -25.10601562 53.51789063 -25.67578125 53.26953125 C-28.52106161 51.71538651 -30.75273557 49.82735943 -33.1875 47.6875 C-34.06792969 46.92824219 -34.94835937 46.16898437 -35.85546875 45.38671875 C-38.1875709 42.79124623 -38.85267496 41.45647208 -39 38 C-37.75865599 35.76558079 -36.55334991 33.99584721 -35 32 C-34.24009766 30.93072266 -34.24009766 30.93072266 -33.46484375 29.83984375 C-30.42188649 25.60063793 -30.42188649 25.60063793 -29 24 C-28.34 24 -27.68 24 -27 24 C-26.7421875 23.43796875 -26.484375 22.8759375 -26.21875 22.296875 C-24.85830223 19.73295421 -23.27211038 17.54773635 -21.5 15.25 C-20.58734375 14.05117188 -20.58734375 14.05117188 -19.65625 12.828125 C-19.1096875 12.22484375 -18.563125 11.6215625 -18 11 C-17.34 11 -16.68 11 -16 11 C-15.773125 10.46375 -15.54625 9.9275 -15.3125 9.375 C-13.18220922 5.52018811 -10.59386456 2.14559015 -7 -0.4375 C-4.27925576 -1.20270932 -2.71104676 -0.79900352 0 0 Z " fill="#172E40" transform="translate(334,351)"/>
<path d="M0 0 C1.319991 1.09520045 2.63249562 2.19948434 3.9375 3.3125 C4.67871094 3.83457031 5.41992188 4.35664063 6.18359375 4.89453125 C6.76238281 5.36246094 7.34117187 5.83039063 7.9375 6.3125 C7.9375 6.9725 7.9375 7.6325 7.9375 8.3125 C8.494375 8.580625 9.05125 8.84875 9.625 9.125 C12.13462523 10.41372647 14.53084236 11.84176478 16.9375 13.3125 C16.63368977 16.95822278 16.2404751 18.05453039 13.38671875 20.484375 C12.57847656 21.08765625 11.77023437 21.6909375 10.9375 22.3125 C0.9375 14.3125 0.9375 14.3125 -1.76953125 12.046875 C-3.84917859 10.11141471 -3.84917859 10.11141471 -6.0625 10.3125 C-7.63514018 12.28416828 -9.11165811 14.25443675 -10.5625 16.3125 C-12.01334189 18.37056325 -13.48985982 20.34083172 -15.0625 22.3125 C-15.7225 22.3125 -16.3825 22.3125 -17.0625 22.3125 C-17.3203125 22.87453125 -17.578125 23.4365625 -17.84375 24.015625 C-19.20419777 26.57954579 -20.79038962 28.76476365 -22.5625 31.0625 C-23.1709375 31.86171875 -23.779375 32.6609375 -24.40625 33.484375 C-24.9528125 34.08765625 -25.499375 34.6909375 -26.0625 35.3125 C-26.7225 35.3125 -27.3825 35.3125 -28.0625 35.3125 C-28.3925 36.6325 -28.7225 37.9525 -29.0625 39.3125 C-28.464375 39.415625 -27.86625 39.51875 -27.25 39.625 C-24.74991714 40.41074033 -23.68714918 41.28168853 -22.0625 43.3125 C-22.0625 43.9725 -22.0625 44.6325 -22.0625 45.3125 C-21.51078125 45.54710937 -20.9590625 45.78171875 -20.390625 46.0234375 C-17.46924236 47.64098158 -15.26675503 49.67700195 -12.8125 51.9375 C-11.92046875 52.75476563 -11.0284375 53.57203125 -10.109375 54.4140625 C-9.43390625 55.04054688 -8.7584375 55.66703125 -8.0625 56.3125 C-9.0525 59.2825 -10.0425 62.2525 -11.0625 65.3125 C-15.45498503 62.89333061 -19.05885302 59.90707041 -22.8125 56.625 C-23.42504639 56.09044189 -24.03759277 55.55588379 -24.66870117 55.00512695 C-25.895574 53.93425214 -27.1217446 52.86257221 -28.34716797 51.79003906 C-29.8526006 50.49330148 -31.394397 49.23903077 -32.94140625 47.9921875 C-39.46993203 42.64780845 -39.46993203 42.64780845 -40.1875 38.4375 C-40.0625 35.3125 -40.0625 35.3125 -39.0625 33.3125 C-38.4025 33.3125 -37.7425 33.3125 -37.0625 33.3125 C-36.84722656 32.78785156 -36.63195312 32.26320313 -36.41015625 31.72265625 C-34.53392075 28.3671858 -32.02775015 25.62146466 -29.5 22.75 C-28.41298376 21.50093797 -27.32705755 20.25092655 -26.2421875 19 C-25.70432617 18.37996094 -25.16646484 17.75992187 -24.61230469 17.12109375 C-21.69491405 13.71655219 -18.89770424 10.2162525 -16.09765625 6.71484375 C-6.38339686 -4.75208433 -6.38339686 -4.75208433 0 0 Z " fill="#172E40" transform="translate(292.0625,403.6875)"/>
<path d="M0 0 C2.55787032 1.98945469 3.77835086 3.38254882 4.875 6.4375 C5.19238092 12.94380894 0.63301104 17.03822707 -3.4375 21.5625 C-4.60400017 22.87529392 -5.76939944 24.18906705 -6.93359375 25.50390625 C-7.47483887 26.11121582 -8.01608398 26.71852539 -8.57373047 27.34423828 C-10.11740041 29.08932316 -10.11740041 29.08932316 -11.78515625 31.46484375 C-12.18605469 31.97144531 -12.58695312 32.47804687 -13 33 C-13.66 33 -14.32 33 -15 33 C-15.2475 33.5775 -15.495 34.155 -15.75 34.75 C-17.27717864 37.49892155 -18.44886792 39.12021847 -21 41 C-25.9698922 41.7099846 -27.84919686 41.79117716 -32 38.9375 C-34 36 -34 36 -34.75 32.75 C-33.68740264 27.43701318 -30.80817778 23.799562 -27 20 C-26.34 20 -25.68 20 -25 20 C-24.72905518 19.41428223 -24.45811035 18.82856445 -24.17895508 18.22509766 C-22.21545792 14.51929664 -19.4167297 11.53739269 -16.6875 8.375 C-16.11837891 7.694375 -15.54925781 7.01375 -14.96289062 6.3125 C-10.68338637 1.34021722 -6.89000606 -2.47333551 0 0 Z " fill="#172E40" transform="translate(306,179)"/>
<path d="M0 0 C2.67881036 1.97386026 3.75391303 3.31447201 4.875 6.4375 C5.18699855 12.8334703 0.82065338 16.80809294 -3.1875 21.25 C-7.50909669 26.12077611 -11.68990711 31.00263148 -15.53515625 36.265625 C-17.69276905 38.82023855 -19.67424221 40.71257985 -23 41.43359375 C-26.47599567 41.4403828 -28.45273944 41.35080805 -31.4375 39.4375 C-33.61471496 36.04104467 -34.13542347 34.06270398 -34 30 C-32.45829401 26.95680644 -30.23864313 24.55543226 -28 22 C-27.14085282 20.97464271 -26.28425358 19.94714719 -25.4296875 18.91796875 C-8.14191967 -1.82491303 -8.14191967 -1.82491303 0 0 Z " fill="#172E40" transform="translate(459,311)"/>
<path d="M0 0 C0.66 0.33 1.32 0.66 2 1 C1.31238981 4.65564909 -0.25449545 7.51867272 -2.0625 10.75 C-2.61035156 11.73484375 -3.15820312 12.7196875 -3.72265625 13.734375 C-4.14417969 14.48203125 -4.56570312 15.2296875 -5 16 C-5.99 15.67 -6.98 15.34 -8 15 C-6.62712658 11.30123909 -4.93644547 8.0485524 -2.875 4.6875 C-2.33617187 3.80449219 -1.79734375 2.92148438 -1.2421875 2.01171875 C-0.83226562 1.34785156 -0.42234375 0.68398437 0 0 Z " fill="#FFFFFD" transform="translate(25,135)"/>
<path d="M0 0 C0.66 0.33 1.32 0.66 2 1 C0.45454854 6.47932789 -2.15543212 11.11429181 -5 16 C-5.66 15.67 -6.32 15.34 -7 15 C-5.45454854 9.52067211 -2.84456788 4.88570819 0 0 Z " fill="#FFFFFD" transform="translate(30,138)"/>
<path d="M0 0 C3.465 1.98 3.465 1.98 7 4 C7 4.66 7 5.32 7 6 C4.07120629 5.37240135 1.63904371 4.41377341 -1 3 C-0.67 2.01 -0.34 1.02 0 0 Z " fill="#FFFFFD" transform="translate(97,77)"/>
<path d="M0 0 C3.37462715 0.54723683 5.08235 1.0549 8 3 C7.67 3.99 7.34 4.98 7 6 C3.535 4.02 3.535 4.02 0 2 C0 1.34 0 0.68 0 0 Z " fill="#FFFFFD" transform="translate(94,65)"/>
<path d="M0 0 C1.98 0.99 3.96 1.98 6 3 C6 3.66 6 4.32 6 5 C3.625 4.6875 3.625 4.6875 1 4 C0.34 3.01 -0.32 2.02 -1 1 C-0.67 0.67 -0.34 0.34 0 0 Z " fill="#FFFFFD" transform="translate(100,10)"/>
<path d="M0 0 C2.475 0.495 2.475 0.495 5 1 C5.33 2.32 5.66 3.64 6 5 C4.02 4.01 2.04 3.02 0 2 C0 1.34 0 0.68 0 0 Z " fill="#FFFFFD" transform="translate(90,72)"/>
<path d="M0 0 C1.32 0.66 2.64 1.32 4 2 C3.01 2.66 2.02 3.32 1 4 C0.34 3.67 -0.32 3.34 -1 3 C-0.67 2.01 -0.34 1.02 0 0 Z " fill="#FFFFFD" transform="translate(535,0)"/>
<path d="M0 0 C0.99 0.33 1.98 0.66 3 1 C2.67 1.66 2.34 2.32 2 3 C1.34 3 0.68 3 0 3 C0 2.01 0 1.02 0 0 Z " fill="#FFFFFD" transform="translate(106,7)"/>
<path d="M0 0 C0.33 0.99 0.66 1.98 1 3 C0.01 3 -0.98 3 -2 3 C-1.34 2.01 -0.68 1.02 0 0 Z " fill="#FFFFFD" transform="translate(96,3)"/>
<path d="M0 0 C0.66 0.66 1.32 1.32 2 2 C1.01 2 0.02 2 -1 2 C-0.67 1.34 -0.34 0.68 0 0 Z " fill="#FEFEFC" transform="translate(547,7)"/>
<path d="M0 0 C2 1 2 1 2 1 Z " fill="#172E40" transform="translate(362,396)"/>
<path d="" fill="#172E40" transform="translate(0,0)"/>
<path d="" fill="#172E40" transform="translate(0,0)"/>
<path d="" fill="#172E40" transform="translate(0,0)"/>
<path d="" fill="#172E40" transform="translate(0,0)"/>
<path d="" fill="#172E40" transform="translate(0,0)"/>
<path d="" fill="#172E40" transform="translate(0,0)"/>
<path d="" fill="#172E40" transform="translate(0,0)"/>
<path d="" fill="#172E40" transform="translate(0,0)"/>
<path d="" fill="#172E40" transform="translate(0,0)"/>
<path d="" fill="#172E40" transform="translate(0,0)"/>
<path d="" fill="#FCFCFC" transform="translate(0,0)"/>
</svg>
